<mxfile host="app.diagrams.net" modified="2021-02-12T14:34:19.701Z" agent="5.0 (Windows NT 10.0; Win64; x64) AppleWebKit/537.36 (KHTML, like Gecko) Chrome/88.0.4324.150 Safari/537.36 Edg/88.0.705.63" etag="7mlRup272BbjogvT5E8A" version="14.3.1" type="github">
  <diagram id="OBJPeG-pmNyepvCjDlye" name="Page-1">
    <mxGraphModel dx="1185" dy="662" grid="1" gridSize="10" guides="1" tooltips="1" connect="1" arrows="1" fold="1" page="0" pageScale="1" pageWidth="850" pageHeight="1100" math="0" shadow="0">
      <root>
        <mxCell id="0" />
        <mxCell id="1" parent="0" />
        <mxCell id="5BoBlTx6qjmuYUXMbrvf-4" value="" style="edgeStyle=orthogonalEdgeStyle;rounded=0;orthogonalLoop=1;jettySize=auto;html=1;" edge="1" parent="1" source="5BoBlTx6qjmuYUXMbrvf-2" target="5BoBlTx6qjmuYUXMbrvf-3">
          <mxGeometry relative="1" as="geometry" />
        </mxCell>
        <mxCell id="5BoBlTx6qjmuYUXMbrvf-2" value="Start" style="ellipse;whiteSpace=wrap;html=1;fillColor=#ffe6cc;strokeColor=#d79b00;" vertex="1" parent="1">
          <mxGeometry x="290" y="70" width="80" height="80" as="geometry" />
        </mxCell>
        <mxCell id="5BoBlTx6qjmuYUXMbrvf-6" value="" style="edgeStyle=orthogonalEdgeStyle;rounded=0;orthogonalLoop=1;jettySize=auto;html=1;" edge="1" parent="1" source="5BoBlTx6qjmuYUXMbrvf-3" target="5BoBlTx6qjmuYUXMbrvf-5">
          <mxGeometry relative="1" as="geometry" />
        </mxCell>
        <mxCell id="5BoBlTx6qjmuYUXMbrvf-3" value="Output Welcome/Enter Name" style="shape=hexagon;perimeter=hexagonPerimeter2;whiteSpace=wrap;html=1;fixedSize=1;fillColor=#d5e8d4;strokeColor=#82b366;" vertex="1" parent="1">
          <mxGeometry x="270" y="200" width="120" height="80" as="geometry" />
        </mxCell>
        <mxCell id="5BoBlTx6qjmuYUXMbrvf-8" value="no" style="edgeStyle=orthogonalEdgeStyle;rounded=0;orthogonalLoop=1;jettySize=auto;html=1;" edge="1" parent="1" source="5BoBlTx6qjmuYUXMbrvf-5" target="5BoBlTx6qjmuYUXMbrvf-7">
          <mxGeometry relative="1" as="geometry" />
        </mxCell>
        <mxCell id="5BoBlTx6qjmuYUXMbrvf-10" value="" style="edgeStyle=orthogonalEdgeStyle;rounded=0;orthogonalLoop=1;jettySize=auto;html=1;" edge="1" parent="1" source="5BoBlTx6qjmuYUXMbrvf-5" target="5BoBlTx6qjmuYUXMbrvf-9">
          <mxGeometry relative="1" as="geometry" />
        </mxCell>
        <mxCell id="5BoBlTx6qjmuYUXMbrvf-5" value="Would you like to play a game?" style="rhombus;whiteSpace=wrap;html=1;fillColor=#dae8fc;strokeColor=#6c8ebf;" vertex="1" parent="1">
          <mxGeometry x="275" y="320" width="110" height="120" as="geometry" />
        </mxCell>
        <mxCell id="5BoBlTx6qjmuYUXMbrvf-7" value="End" style="ellipse;whiteSpace=wrap;html=1;fillColor=#ffe6cc;strokeColor=#d79b00;" vertex="1" parent="1">
          <mxGeometry x="480" y="340" width="80" height="80" as="geometry" />
        </mxCell>
        <mxCell id="5BoBlTx6qjmuYUXMbrvf-12" value="" style="edgeStyle=orthogonalEdgeStyle;rounded=0;orthogonalLoop=1;jettySize=auto;html=1;" edge="1" parent="1" source="5BoBlTx6qjmuYUXMbrvf-9" target="5BoBlTx6qjmuYUXMbrvf-11">
          <mxGeometry relative="1" as="geometry" />
        </mxCell>
        <mxCell id="5BoBlTx6qjmuYUXMbrvf-9" value="Pick a random number between 1-100" style="rounded=0;whiteSpace=wrap;html=1;fillColor=#f8cecc;strokeColor=#b85450;" vertex="1" parent="1">
          <mxGeometry x="270" y="500" width="120" height="60" as="geometry" />
        </mxCell>
        <mxCell id="5BoBlTx6qjmuYUXMbrvf-15" value="" style="edgeStyle=orthogonalEdgeStyle;rounded=0;orthogonalLoop=1;jettySize=auto;html=1;" edge="1" parent="1" source="5BoBlTx6qjmuYUXMbrvf-11" target="5BoBlTx6qjmuYUXMbrvf-13">
          <mxGeometry relative="1" as="geometry" />
        </mxCell>
        <mxCell id="5BoBlTx6qjmuYUXMbrvf-11" value="can you guess what number i picked?" style="rhombus;whiteSpace=wrap;html=1;fillColor=#dae8fc;strokeColor=#6c8ebf;" vertex="1" parent="1">
          <mxGeometry x="280" y="610" width="100" height="110" as="geometry" />
        </mxCell>
        <mxCell id="5BoBlTx6qjmuYUXMbrvf-16" value="no" style="edgeStyle=orthogonalEdgeStyle;rounded=0;orthogonalLoop=1;jettySize=auto;html=1;exitX=1;exitY=0.5;exitDx=0;exitDy=0;entryX=1;entryY=0.5;entryDx=0;entryDy=0;" edge="1" parent="1" source="5BoBlTx6qjmuYUXMbrvf-13" target="5BoBlTx6qjmuYUXMbrvf-11">
          <mxGeometry relative="1" as="geometry" />
        </mxCell>
        <mxCell id="5BoBlTx6qjmuYUXMbrvf-18" value="yes" style="edgeStyle=orthogonalEdgeStyle;rounded=0;orthogonalLoop=1;jettySize=auto;html=1;" edge="1" parent="1" source="5BoBlTx6qjmuYUXMbrvf-13" target="5BoBlTx6qjmuYUXMbrvf-17">
          <mxGeometry relative="1" as="geometry" />
        </mxCell>
        <mxCell id="5BoBlTx6qjmuYUXMbrvf-13" value="Is the number correct?" style="rounded=0;whiteSpace=wrap;html=1;fillColor=#f8cecc;strokeColor=#b85450;" vertex="1" parent="1">
          <mxGeometry x="270" y="770" width="120" height="60" as="geometry" />
        </mxCell>
        <mxCell id="5BoBlTx6qjmuYUXMbrvf-20" value="" style="edgeStyle=orthogonalEdgeStyle;rounded=0;orthogonalLoop=1;jettySize=auto;html=1;" edge="1" parent="1" source="5BoBlTx6qjmuYUXMbrvf-17" target="5BoBlTx6qjmuYUXMbrvf-19">
          <mxGeometry relative="1" as="geometry" />
        </mxCell>
        <mxCell id="5BoBlTx6qjmuYUXMbrvf-17" value="Output Congratulations!" style="shape=hexagon;perimeter=hexagonPerimeter2;whiteSpace=wrap;html=1;fixedSize=1;fillColor=#d5e8d4;strokeColor=#82b366;" vertex="1" parent="1">
          <mxGeometry x="270" y="890" width="120" height="80" as="geometry" />
        </mxCell>
        <mxCell id="5BoBlTx6qjmuYUXMbrvf-19" value="End" style="ellipse;whiteSpace=wrap;html=1;fillColor=#ffe6cc;strokeColor=#d79b00;" vertex="1" parent="1">
          <mxGeometry x="285" y="1000" width="90" height="80" as="geometry" />
        </mxCell>
      </root>
    </mxGraphModel>
  </diagram>
</mxfile>
